<svg xmlns="http://www.w3.org/2000/svg" xmlns:xlink="http://www.w3.org/1999/xlink" width="550" height="602" viewBox="0 0 550 602" role="img" shape-rendering="crispEdges" text-rendering="geometricPrecision"><title>Skills and tech stack</title><defs><path id="g2b" d="M2 1h1v1h-1zM2 2h1v1h-1zM0 3h5v1h-5zM2 4h1v1h-1zM2 5h1v1h-1z"/><path id="g2c" d="M1 4h1v1h-1zM1 5h1v1h-1zM0 6h1v1h-1z"/><path id="g2d" d="M0 3h3v1h-3z"/><path id="g2e" d="M0 6h1v1h-1z"/><path id="g2f" d="M4 0h1v1h-1zM4 1h1v1h-1zM3 2h1v1h-1zM2 3h1v1h-1zM1 4h1v1h-1zM0 5h1v1h-1zM0 6h1v1h-1z"/><path id="g30" d="M1 0h3v1h-3zM0 1h1v1h-1zM4 1h1v1h-1zM0 2h1v1h-1zM3 2h2v1h-2zM0 3h1v1h-1zM2 3h1v1h-1zM4 3h1v1h-1zM0 4h2v1h-2zM4 4h1v1h-1zM0 5h1v1h-1zM4 5h1v1h-1zM1 6h3v1h-3z"/><path id="g31" d="M1 0h1v1h-1zM0 1h2v1h-2zM1 2h1v1h-1zM1 3h1v1h-1zM1 4h1v1h-1zM1 5h1v1h-1zM0 6h3v1h-3z"/><path id="g32" d="M1 0h3v1h-3zM0 1h1v1h-1zM4 1h1v1h-1zM4 2h1v1h-1zM3 3h1v1h-1zM2 4h1v1h-1zM1 5h1v1h-1zM0 6h5v1h-5z"/><path id="g33" d="M0 0h4v1h-4zM4 1h1v1h-1zM4 2h1v1h-1zM1 3h3v1h-3zM4 4h1v1h-1zM4 5h1v1h-1zM0 6h4v1h-4z"/><path id="g34" d="M3 0h1v1h-1zM2 1h2v1h-2zM1 2h1v1h-1zM3 2h1v1h-1zM0 3h1v1h-1zM3 3h1v1h-1zM0 4h5v1h-5zM3 5h1v1h-1zM3 6h1v1h-1z"/><path id="g35" d="M0 0h5v1h-5zM0 1h1v1h-1zM0 2h4v1h-4zM4 3h1v1h-1zM4 4h1v1h-1zM0 5h1v1h-1zM4 5h1v1h-1zM1 6h3v1h-3z"/><path id="g36" d="M1 0h3v1h-3zM0 1h1v1h-1zM4 1h1v1h-1zM0 2h1v1h-1zM0 3h4v1h-4zM0 4h1v1h-1zM4 4h1v1h-1zM0 5h1v1h-1zM4 5h1v1h-1zM1 6h3v1h-3z"/><path id="g37" d="M0 0h5v1h-5zM4 1h1v1h-1zM3 2h1v1h-1zM2 3h1v1h-1zM1 4h1v1h-1zM1 5h1v1h-1zM1 6h1v1h-1z"/><path id="g38" d="M1 0h3v1h-3zM0 1h1v1h-1zM4 1h1v1h-1zM0 2h1v1h-1zM4 2h1v1h-1zM1 3h3v1h-3zM0 4h1v1h-1zM4 4h1v1h-1zM0 5h1v1h-1zM4 5h1v1h-1zM1 6h3v1h-3z"/><path id="g39" d="M1 0h3v1h-3zM0 1h1v1h-1zM4 1h1v1h-1zM0 2h1v1h-1zM4 2h1v1h-1zM1 3h4v1h-4zM4 4h1v1h-1zM0 5h1v1h-1zM4 5h1v1h-1zM1 6h3v1h-3z"/><path id="g41" d="M1 0h3v1h-3zM0 1h1v1h-1zM4 1h1v1h-1zM0 2h1v1h-1zM4 2h1v1h-1zM0 3h5v1h-5zM0 4h1v1h-1zM4 4h1v1h-1zM0 5h1v1h-1zM4 5h1v1h-1zM0 6h1v1h-1zM4 6h1v1h-1z"/><path id="g42" d="M0 0h4v1h-4zM0 1h1v1h-1zM4 1h1v1h-1zM0 2h1v1h-1zM4 2h1v1h-1zM0 3h4v1h-4zM0 4h1v1h-1zM4 4h1v1h-1zM0 5h1v1h-1zM4 5h1v1h-1zM0 6h4v1h-4z"/><path id="g43" d="M1 0h3v1h-3zM0 1h1v1h-1zM4 1h1v1h-1zM0 2h1v1h-1zM0 3h1v1h-1zM0 4h1v1h-1zM0 5h1v1h-1zM4 5h1v1h-1zM1 6h3v1h-3z"/><path id="g44" d="M0 0h4v1h-4zM0 1h1v1h-1zM4 1h1v1h-1zM0 2h1v1h-1zM4 2h1v1h-1zM0 3h1v1h-1zM4 3h1v1h-1zM0 4h1v1h-1zM4 4h1v1h-1zM0 5h1v1h-1zM4 5h1v1h-1zM0 6h4v1h-4z"/><path id="g45" d="M0 0h5v1h-5zM0 1h1v1h-1zM0 2h1v1h-1zM0 3h4v1h-4zM0 4h1v1h-1zM0 5h1v1h-1zM0 6h5v1h-5z"/><path id="g46" d="M0 0h5v1h-5zM0 1h1v1h-1zM0 2h1v1h-1zM0 3h4v1h-4zM0 4h1v1h-1zM0 5h1v1h-1zM0 6h1v1h-1z"/><path id="g47" d="M1 0h3v1h-3zM0 1h1v1h-1zM4 1h1v1h-1zM0 2h1v1h-1zM0 3h1v1h-1zM2 3h3v1h-3zM0 4h1v1h-1zM4 4h1v1h-1zM0 5h1v1h-1zM4 5h1v1h-1zM1 6h3v1h-3z"/><path id="g48" d="M0 0h1v1h-1zM4 0h1v1h-1zM0 1h1v1h-1zM4 1h1v1h-1zM0 2h1v1h-1zM4 2h1v1h-1zM0 3h5v1h-5zM0 4h1v1h-1zM4 4h1v1h-1zM0 5h1v1h-1zM4 5h1v1h-1zM0 6h1v1h-1zM4 6h1v1h-1z"/><path id="g49" d="M0 0h3v1h-3zM1 1h1v1h-1zM1 2h1v1h-1zM1 3h1v1h-1zM1 4h1v1h-1zM1 5h1v1h-1zM0 6h3v1h-3z"/><path id="g4a" d="M2 0h2v1h-2zM3 1h1v1h-1zM3 2h1v1h-1zM3 3h1v1h-1zM3 4h1v1h-1zM0 5h1v1h-1zM3 5h1v1h-1zM1 6h2v1h-2z"/><path id="g4b" d="M0 0h1v1h-1zM4 0h1v1h-1zM0 1h1v1h-1zM3 1h1v1h-1zM0 2h1v1h-1zM2 2h1v1h-1zM0 3h2v1h-2zM0 4h1v1h-1zM2 4h1v1h-1zM0 5h1v1h-1zM3 5h1v1h-1zM0 6h1v1h-1zM4 6h1v1h-1z"/><path id="g4c" d="M0 0h1v1h-1zM0 1h1v1h-1zM0 2h1v1h-1zM0 3h1v1h-1zM0 4h1v1h-1zM0 5h1v1h-1zM0 6h5v1h-5z"/><path id="g4d" d="M0 0h1v1h-1zM4 0h1v1h-1zM0 1h2v1h-2zM3 1h2v1h-2zM0 2h1v1h-1zM2 2h1v1h-1zM4 2h1v1h-1zM0 3h1v1h-1zM2 3h1v1h-1zM4 3h1v1h-1zM0 4h1v1h-1zM4 4h1v1h-1zM0 5h1v1h-1zM4 5h1v1h-1zM0 6h1v1h-1zM4 6h1v1h-1z"/><path id="g4e" d="M0 0h1v1h-1zM4 0h1v1h-1zM0 1h2v1h-2zM4 1h1v1h-1zM0 2h1v1h-1zM2 2h1v1h-1zM4 2h1v1h-1zM0 3h1v1h-1zM2 3h1v1h-1zM4 3h1v1h-1zM0 4h1v1h-1zM3 4h2v1h-2zM0 5h1v1h-1zM4 5h1v1h-1zM0 6h1v1h-1zM4 6h1v1h-1z"/><path id="g4f" d="M1 0h3v1h-3zM0 1h1v1h-1zM4 1h1v1h-1zM0 2h1v1h-1zM4 2h1v1h-1zM0 3h1v1h-1zM4 3h1v1h-1zM0 4h1v1h-1zM4 4h1v1h-1zM0 5h1v1h-1zM4 5h1v1h-1zM1 6h3v1h-3z"/><path id="g50" d="M0 0h4v1h-4zM0 1h1v1h-1zM4 1h1v1h-1zM0 2h1v1h-1zM4 2h1v1h-1zM0 3h4v1h-4zM0 4h1v1h-1zM0 5h1v1h-1zM0 6h1v1h-1z"/><path id="g51" d="M1 0h3v1h-3zM0 1h1v1h-1zM4 1h1v1h-1zM0 2h1v1h-1zM4 2h1v1h-1zM0 3h1v1h-1zM4 3h1v1h-1zM0 4h1v1h-1zM2 4h1v1h-1zM4 4h1v1h-1zM0 5h1v1h-1zM3 5h1v1h-1zM1 6h2v1h-2zM4 6h1v1h-1z"/><path id="g52" d="M0 0h4v1h-4zM0 1h1v1h-1zM4 1h1v1h-1zM0 2h1v1h-1zM4 2h1v1h-1zM0 3h4v1h-4zM0 4h1v1h-1zM2 4h1v1h-1zM0 5h1v1h-1zM3 5h1v1h-1zM0 6h1v1h-1zM4 6h1v1h-1z"/><path id="g53" d="M1 0h4v1h-4zM0 1h1v1h-1zM0 2h1v1h-1zM1 3h3v1h-3zM4 4h1v1h-1zM4 5h1v1h-1zM0 6h4v1h-4z"/><path id="g54" d="M0 0h5v1h-5zM2 1h1v1h-1zM2 2h1v1h-1zM2 3h1v1h-1zM2 4h1v1h-1zM2 5h1v1h-1zM2 6h1v1h-1z"/><path id="g55" d="M0 0h1v1h-1zM4 0h1v1h-1zM0 1h1v1h-1zM4 1h1v1h-1zM0 2h1v1h-1zM4 2h1v1h-1zM0 3h1v1h-1zM4 3h1v1h-1zM0 4h1v1h-1zM4 4h1v1h-1zM0 5h1v1h-1zM4 5h1v1h-1zM1 6h3v1h-3z"/><path id="g56" d="M0 0h1v1h-1zM4 0h1v1h-1zM0 1h1v1h-1zM4 1h1v1h-1zM0 2h1v1h-1zM4 2h1v1h-1zM0 3h1v1h-1zM4 3h1v1h-1zM0 4h1v1h-1zM4 4h1v1h-1zM1 5h1v1h-1zM3 5h1v1h-1zM2 6h1v1h-1z"/><path id="g57" d="M0 0h1v1h-1zM4 0h1v1h-1zM0 1h1v1h-1zM4 1h1v1h-1zM0 2h1v1h-1zM4 2h1v1h-1zM0 3h1v1h-1zM2 3h1v1h-1zM4 3h1v1h-1zM0 4h1v1h-1zM2 4h1v1h-1zM4 4h1v1h-1zM0 5h2v1h-2zM3 5h2v1h-2zM0 6h1v1h-1zM4 6h1v1h-1z"/><path id="g58" d="M0 0h1v1h-1zM4 0h1v1h-1zM0 1h1v1h-1zM4 1h1v1h-1zM1 2h1v1h-1zM3 2h1v1h-1zM2 3h1v1h-1zM1 4h1v1h-1zM3 4h1v1h-1zM0 5h1v1h-1zM4 5h1v1h-1zM0 6h1v1h-1zM4 6h1v1h-1z"/><path id="g59" d="M0 0h1v1h-1zM4 0h1v1h-1zM0 1h1v1h-1zM4 1h1v1h-1zM1 2h1v1h-1zM3 2h1v1h-1zM2 3h1v1h-1zM2 4h1v1h-1zM2 5h1v1h-1zM2 6h1v1h-1z"/></defs><style>
.grow{transform-box:fill-box;transform-origin:left center;animation:grow .85s cubic-bezier(.16,1,.3,1) both;animation-delay:var(--d,0s)}
@keyframes grow{from{transform:scaleX(0)}to{transform:scaleX(1)}}
.pop{transform-box:fill-box;transform-origin:center;animation:pop .38s cubic-bezier(.16,1,.3,1) both;animation-delay:var(--d,0s)}
@keyframes pop{0%{opacity:0;transform:scale(.4)}60%{opacity:1;transform:scale(1.12)}100%{opacity:1;transform:scale(1)}}
.rise{animation:rise .5s cubic-bezier(.16,1,.3,1) both;animation-delay:var(--d,0s)}
@keyframes rise{from{opacity:0;transform:translateY(4px)}to{opacity:1;transform:none}}
.fade{animation:fade .6s ease both;animation-delay:var(--d,0s)}
@keyframes fade{from{opacity:0}to{opacity:1}}
.odo{animation:odo 1.5s cubic-bezier(.16,1,.3,1) both;animation-delay:var(--d,0s)}
@keyframes odo{from{transform:translateY(0)}to{transform:translateY(var(--ty))}}
.blink{animation:blink 1s steps(1,end) infinite}
@keyframes blink{0%,50%{opacity:1}50.01%,100%{opacity:0}}
.pulse{transform-box:fill-box;transform-origin:center;animation:pulse 1.8s ease-in-out infinite}
@keyframes pulse{0%,100%{opacity:1;transform:scale(1)}50%{opacity:.45;transform:scale(.72)}}
</style><path d="M5 1H545L549 5V597L545 601H5L1 597V5Z" fill="#FFFFFF" stroke="#123A5C" stroke-width="2" /><path d="M5 3H545L547 5V30H3V5Z" fill="#123A5C"/><g transform="translate(14 9) scale(2)" fill="#FFFFFF"><use href="#g53" x="0"/><use href="#g54" x="6"/><use href="#g41" x="12"/><use href="#g43" x="18"/><use href="#g4b" x="24"/></g><g transform="translate(426 9) scale(2)" fill="#97DEFF"><use href="#g33" x="0"/><use href="#g39" x="6"/><use href="#g45" x="16"/><use href="#g4e" x="22"/><use href="#g54" x="28"/><use href="#g52" x="34"/><use href="#g49" x="40"/><use href="#g45" x="44"/><use href="#g53" x="50"/></g><rect x="16" y="48" width="3" height="10" fill="#56A6FC" /><g class="fade" style="--d:0.00s"><g transform="translate(26 46) scale(2)" fill="#4A7CA5"><use href="#g46" x="0"/><use href="#g55" x="6"/><use href="#g4c" x="12"/><use href="#g4c" x="18"/><use href="#g2d" x="24"/><use href="#g53" x="28"/><use href="#g54" x="34"/><use href="#g41" x="40"/><use href="#g43" x="46"/><use href="#g4b" x="52"/><use href="#g57" x="62"/><use href="#g45" x="68"/><use href="#g42" x="74"/></g></g><g class="rise" style="--d:0.10s"><rect x="16" y="68" width="78" height="26" fill="#EAF5FF" /><rect x="16" y="91" width="78" height="3" fill="#56A6FC" /><g transform="translate(26 74) scale(2)" fill="#123A5C"><use href="#g52" x="0"/><use href="#g45" x="6"/><use href="#g41" x="12"/><use href="#g43" x="18"/><use href="#g54" x="24"/></g></g><g class="rise" style="--d:0.13s"><rect x="100" y="68" width="92" height="26" fill="#EAF5FF" /><rect x="100" y="91" width="92" height="3" fill="#56A6FC" /><g transform="translate(110 74) scale(2)" fill="#123A5C"><use href="#g4e" x="0"/><use href="#g45" x="6"/><use href="#g58" x="12"/><use href="#g54" x="18"/><use href="#g2e" x="24"/><use href="#g4a" x="26"/><use href="#g53" x="31"/></g></g><g class="rise" style="--d:0.15s"><rect x="198" y="68" width="134" height="26" fill="#EAF5FF" /><rect x="198" y="91" width="134" height="3" fill="#56A6FC" /><g transform="translate(208 74) scale(2)" fill="#123A5C"><use href="#g54" x="0"/><use href="#g59" x="6"/><use href="#g50" x="12"/><use href="#g45" x="18"/><use href="#g53" x="24"/><use href="#g43" x="30"/><use href="#g52" x="36"/><use href="#g49" x="42"/><use href="#g50" x="46"/><use href="#g54" x="52"/></g></g><g class="rise" style="--d:0.18s"><rect x="338" y="68" width="92" height="26" fill="#EAF5FF" /><rect x="338" y="91" width="92" height="3" fill="#56A6FC" /><g transform="translate(348 74) scale(2)" fill="#123A5C"><use href="#g4e" x="0"/><use href="#g4f" x="6"/><use href="#g44" x="12"/><use href="#g45" x="18"/><use href="#g2e" x="24"/><use href="#g4a" x="26"/><use href="#g53" x="31"/></g></g><g class="rise" style="--d:0.20s"><rect x="436" y="68" width="88" height="26" fill="#EAF5FF" /><rect x="436" y="91" width="88" height="3" fill="#56A6FC" /><g transform="translate(446 74) scale(2)" fill="#123A5C"><use href="#g4e" x="0"/><use href="#g45" x="6"/><use href="#g53" x="12"/><use href="#g54" x="18"/><use href="#g4a" x="24"/><use href="#g53" x="29"/></g></g><g class="rise" style="--d:0.23s"><rect x="16" y="100" width="128" height="26" fill="#EAF5FF" /><rect x="16" y="123" width="128" height="3" fill="#56A6FC" /><g transform="translate(26 106) scale(2)" fill="#123A5C"><use href="#g45" x="0"/><use href="#g58" x="6"/><use href="#g50" x="12"/><use href="#g52" x="18"/><use href="#g45" x="24"/><use href="#g53" x="30"/><use href="#g53" x="36"/><use href="#g2e" x="42"/><use href="#g4a" x="44"/><use href="#g53" x="49"/></g></g><g class="rise" style="--d:0.25s"><rect x="150" y="100" width="98" height="26" fill="#EAF5FF" /><rect x="150" y="123" width="98" height="3" fill="#56A6FC" /><g transform="translate(160 106) scale(2)" fill="#123A5C"><use href="#g46" x="0"/><use href="#g41" x="6"/><use href="#g53" x="12"/><use href="#g54" x="18"/><use href="#g41" x="24"/><use href="#g50" x="30"/><use href="#g49" x="36"/></g></g><g class="rise" style="--d:0.28s"><rect x="254" y="100" width="54" height="26" fill="#EAF5FF" /><rect x="254" y="123" width="54" height="3" fill="#56A6FC" /><g transform="translate(264 106) scale(2)" fill="#123A5C"><use href="#g50" x="0"/><use href="#g48" x="6"/><use href="#g50" x="12"/></g></g><g class="rise" style="--d:0.30s"><rect x="314" y="100" width="102" height="26" fill="#EAF5FF" /><rect x="314" y="123" width="102" height="3" fill="#56A6FC" /><g transform="translate(324 106) scale(2)" fill="#123A5C"><use href="#g4c" x="0"/><use href="#g41" x="6"/><use href="#g52" x="12"/><use href="#g41" x="18"/><use href="#g56" x="24"/><use href="#g45" x="30"/><use href="#g4c" x="36"/></g></g><g class="rise" style="--d:0.33s"><rect x="16" y="132" width="138" height="26" fill="#EAF5FF" /><rect x="16" y="155" width="138" height="3" fill="#56A6FC" /><g transform="translate(26 138) scale(2)" fill="#123A5C"><use href="#g50" x="0"/><use href="#g4f" x="6"/><use href="#g53" x="12"/><use href="#g54" x="18"/><use href="#g47" x="24"/><use href="#g52" x="30"/><use href="#g45" x="36"/><use href="#g53" x="42"/><use href="#g51" x="48"/><use href="#g4c" x="54"/></g></g><g class="rise" style="--d:0.35s"><rect x="160" y="132" width="86" height="26" fill="#EAF5FF" /><rect x="160" y="155" width="86" height="3" fill="#56A6FC" /><g transform="translate(170 138) scale(2)" fill="#123A5C"><use href="#g50" x="0"/><use href="#g52" x="6"/><use href="#g49" x="12"/><use href="#g53" x="16"/><use href="#g4d" x="22"/><use href="#g41" x="28"/></g></g><g class="rise" style="--d:0.38s"><rect x="252" y="132" width="114" height="26" fill="#EAF5FF" /><rect x="252" y="155" width="114" height="3" fill="#56A6FC" /><g transform="translate(262 138) scale(2)" fill="#123A5C"><use href="#g53" x="0"/><use href="#g55" x="6"/><use href="#g50" x="12"/><use href="#g41" x="18"/><use href="#g42" x="24"/><use href="#g41" x="30"/><use href="#g53" x="36"/><use href="#g45" x="42"/></g></g><g class="rise" style="--d:0.40s"><rect x="372" y="132" width="118" height="26" fill="#EAF5FF" /><rect x="372" y="155" width="118" height="3" fill="#56A6FC" /><g transform="translate(382 138) scale(2)" fill="#123A5C"><use href="#g52" x="0"/><use href="#g45" x="6"/><use href="#g53" x="12"/><use href="#g54" x="18"/><use href="#g41" x="28"/><use href="#g50" x="34"/><use href="#g49" x="40"/><use href="#g53" x="44"/></g></g><g class="rise" style="--d:0.43s"><rect x="16" y="164" width="90" height="26" fill="#EAF5FF" /><rect x="16" y="187" width="90" height="3" fill="#56A6FC" /><g transform="translate(26 170) scale(2)" fill="#123A5C"><use href="#g44" x="0"/><use href="#g4f" x="6"/><use href="#g43" x="12"/><use href="#g4b" x="18"/><use href="#g45" x="24"/><use href="#g52" x="30"/></g></g><g class="rise" style="--d:0.45s"><rect x="112" y="164" width="146" height="26" fill="#EAF5FF" /><rect x="112" y="187" width="146" height="3" fill="#56A6FC" /><g transform="translate(122 170) scale(2)" fill="#123A5C"><use href="#g47" x="0"/><use href="#g49" x="6"/><use href="#g54" x="10"/><use href="#g2f" x="20"/><use href="#g47" x="30"/><use href="#g49" x="36"/><use href="#g54" x="40"/><use href="#g48" x="46"/><use href="#g55" x="52"/><use href="#g42" x="58"/></g></g><rect x="16" y="210" width="3" height="10" fill="#56A6FC" /><g class="fade" style="--d:0.30s"><g transform="translate(26 208) scale(2)" fill="#4A7CA5"><use href="#g41" x="0"/><use href="#g49" x="6"/><use href="#g41" x="14"/><use href="#g4e" x="20"/><use href="#g44" x="26"/><use href="#g4d" x="36"/><use href="#g41" x="42"/><use href="#g43" x="48"/><use href="#g48" x="54"/><use href="#g49" x="60"/><use href="#g4e" x="64"/><use href="#g45" x="70"/><use href="#g4c" x="80"/><use href="#g45" x="86"/><use href="#g41" x="92"/><use href="#g52" x="98"/><use href="#g4e" x="104"/><use href="#g49" x="110"/><use href="#g4e" x="114"/><use href="#g47" x="120"/></g></g><g class="rise" style="--d:0.47s"><rect x="16" y="230" width="90" height="26" fill="#EAF5FF" /><rect x="16" y="253" width="90" height="3" fill="#56A6FC" /><g transform="translate(26 236) scale(2)" fill="#123A5C"><use href="#g50" x="0"/><use href="#g59" x="6"/><use href="#g54" x="12"/><use href="#g48" x="18"/><use href="#g4f" x="24"/><use href="#g4e" x="30"/></g></g><g class="rise" style="--d:0.50s"><rect x="112" y="230" width="138" height="26" fill="#EAF5FF" /><rect x="112" y="253" width="138" height="3" fill="#56A6FC" /><g transform="translate(122 236) scale(2)" fill="#123A5C"><use href="#g54" x="0"/><use href="#g45" x="6"/><use href="#g4e" x="12"/><use href="#g53" x="18"/><use href="#g4f" x="24"/><use href="#g52" x="30"/><use href="#g46" x="36"/><use href="#g4c" x="42"/><use href="#g4f" x="48"/><use href="#g57" x="54"/></g></g><g class="rise" style="--d:0.53s"><rect x="256" y="230" width="164" height="26" fill="#EAF5FF" /><rect x="256" y="253" width="164" height="3" fill="#56A6FC" /><g transform="translate(266 236) scale(2)" fill="#123A5C"><use href="#g54" x="0"/><use href="#g45" x="6"/><use href="#g4e" x="12"/><use href="#g53" x="18"/><use href="#g4f" x="24"/><use href="#g52" x="30"/><use href="#g46" x="36"/><use href="#g4c" x="42"/><use href="#g4f" x="48"/><use href="#g57" x="54"/><use href="#g2e" x="60"/><use href="#g4a" x="62"/><use href="#g53" x="67"/></g></g><g class="rise" style="--d:0.55s"><rect x="426" y="230" width="102" height="26" fill="#EAF5FF" /><rect x="426" y="253" width="102" height="3" fill="#56A6FC" /><g transform="translate(436 236) scale(2)" fill="#123A5C"><use href="#g50" x="0"/><use href="#g59" x="6"/><use href="#g54" x="12"/><use href="#g4f" x="18"/><use href="#g52" x="24"/><use href="#g43" x="30"/><use href="#g48" x="36"/></g></g><g class="rise" style="--d:0.58s"><rect x="16" y="262" width="150" height="26" fill="#EAF5FF" /><rect x="16" y="285" width="150" height="3" fill="#56A6FC" /><g transform="translate(26 268) scale(2)" fill="#123A5C"><use href="#g53" x="0"/><use href="#g43" x="6"/><use href="#g49" x="12"/><use href="#g4b" x="16"/><use href="#g49" x="22"/><use href="#g54" x="26"/><use href="#g2d" x="32"/><use href="#g4c" x="36"/><use href="#g45" x="42"/><use href="#g41" x="48"/><use href="#g52" x="54"/><use href="#g4e" x="60"/></g></g><g class="rise" style="--d:0.60s"><rect x="172" y="262" width="90" height="26" fill="#EAF5FF" /><rect x="172" y="285" width="90" height="3" fill="#56A6FC" /><g transform="translate(182 268) scale(2)" fill="#123A5C"><use href="#g4f" x="0"/><use href="#g50" x="6"/><use href="#g45" x="12"/><use href="#g4e" x="18"/><use href="#g43" x="24"/><use href="#g56" x="30"/></g></g><g class="rise" style="--d:0.63s"><rect x="268" y="262" width="118" height="26" fill="#EAF5FF" /><rect x="268" y="285" width="118" height="3" fill="#56A6FC" /><g transform="translate(278 268) scale(2)" fill="#123A5C"><use href="#g4d" x="0"/><use href="#g45" x="6"/><use href="#g44" x="12"/><use href="#g49" x="18"/><use href="#g41" x="22"/><use href="#g50" x="28"/><use href="#g49" x="34"/><use href="#g50" x="38"/><use href="#g45" x="44"/></g></g><g class="rise" style="--d:0.65s"><rect x="392" y="262" width="66" height="26" fill="#EAF5FF" /><rect x="392" y="285" width="66" height="3" fill="#56A6FC" /><g transform="translate(402 268) scale(2)" fill="#123A5C"><use href="#g59" x="0"/><use href="#g4f" x="6"/><use href="#g4c" x="12"/><use href="#g4f" x="18"/></g></g><rect x="16" y="308" width="3" height="10" fill="#56A6FC" /><g class="fade" style="--d:0.46s"><g transform="translate(26 306) scale(2)" fill="#4A7CA5"><use href="#g4c" x="0"/><use href="#g4c" x="6"/><use href="#g4d" x="12"/><use href="#g41" x="22"/><use href="#g50" x="28"/><use href="#g50" x="34"/><use href="#g4c" x="40"/><use href="#g49" x="46"/><use href="#g43" x="50"/><use href="#g41" x="56"/><use href="#g54" x="62"/><use href="#g49" x="68"/><use href="#g4f" x="72"/><use href="#g4e" x="78"/><use href="#g53" x="84"/></g></g><g class="rise" style="--d:0.68s"><rect x="16" y="328" width="126" height="26" fill="#EAF5FF" /><rect x="16" y="351" width="126" height="3" fill="#56A6FC" /><g transform="translate(26 334) scale(2)" fill="#123A5C"><use href="#g4f" x="0"/><use href="#g50" x="6"/><use href="#g45" x="12"/><use href="#g4e" x="18"/><use href="#g41" x="24"/><use href="#g49" x="30"/><use href="#g41" x="38"/><use href="#g50" x="44"/><use href="#g49" x="50"/></g></g><g class="rise" style="--d:0.70s"><rect x="148" y="328" width="122" height="26" fill="#EAF5FF" /><rect x="148" y="351" width="122" height="3" fill="#56A6FC" /><g transform="translate(158 334) scale(2)" fill="#123A5C"><use href="#g4c" x="0"/><use href="#g41" x="6"/><use href="#g4e" x="12"/><use href="#g47" x="18"/><use href="#g43" x="24"/><use href="#g48" x="30"/><use href="#g41" x="36"/><use href="#g49" x="42"/><use href="#g4e" x="46"/></g></g><g class="rise" style="--d:0.72s"><rect x="276" y="328" width="54" height="26" fill="#EAF5FF" /><rect x="276" y="351" width="54" height="3" fill="#56A6FC" /><g transform="translate(286 334) scale(2)" fill="#123A5C"><use href="#g52" x="0"/><use href="#g41" x="6"/><use href="#g47" x="12"/></g></g><g class="rise" style="--d:0.75s"><rect x="16" y="360" width="222" height="26" fill="#EAF5FF" /><rect x="16" y="383" width="222" height="3" fill="#56A6FC" /><g transform="translate(26 366) scale(2)" fill="#123A5C"><use href="#g50" x="0"/><use href="#g52" x="6"/><use href="#g4f" x="12"/><use href="#g4d" x="18"/><use href="#g50" x="24"/><use href="#g54" x="30"/><use href="#g45" x="40"/><use href="#g4e" x="46"/><use href="#g47" x="52"/><use href="#g49" x="58"/><use href="#g4e" x="62"/><use href="#g45" x="68"/><use href="#g45" x="74"/><use href="#g52" x="80"/><use href="#g49" x="86"/><use href="#g4e" x="90"/><use href="#g47" x="96"/></g></g><g class="rise" style="--d:0.78s"><rect x="244" y="360" width="78" height="26" fill="#EAF5FF" /><rect x="244" y="383" width="78" height="3" fill="#56A6FC" /><g transform="translate(254 366) scale(2)" fill="#123A5C"><use href="#g52" x="0"/><use href="#g45" x="6"/><use href="#g47" x="12"/><use href="#g45" x="18"/><use href="#g58" x="24"/></g></g><rect x="16" y="406" width="3" height="10" fill="#56A6FC" /><g class="fade" style="--d:0.56s"><g transform="translate(26 404) scale(2)" fill="#4A7CA5"><use href="#g49" x="0"/><use href="#g4e" x="4"/><use href="#g54" x="10"/><use href="#g45" x="16"/><use href="#g47" x="22"/><use href="#g52" x="28"/><use href="#g41" x="34"/><use href="#g54" x="40"/><use href="#g49" x="46"/><use href="#g4f" x="50"/><use href="#g4e" x="56"/><use href="#g53" x="62"/></g></g><g class="rise" style="--d:0.80s"><rect x="16" y="426" width="110" height="26" fill="#EAF5FF" /><rect x="16" y="449" width="110" height="3" fill="#56A6FC" /><g transform="translate(26 432) scale(2)" fill="#123A5C"><use href="#g4d" x="0"/><use href="#g49" x="6"/><use href="#g44" x="10"/><use href="#g54" x="16"/><use href="#g52" x="22"/><use href="#g41" x="28"/><use href="#g4e" x="34"/><use href="#g53" x="40"/></g></g><g class="rise" style="--d:0.83s"><rect x="132" y="426" width="158" height="26" fill="#EAF5FF" /><rect x="132" y="449" width="158" height="3" fill="#56A6FC" /><g transform="translate(142 432) scale(2)" fill="#123A5C"><use href="#g47" x="0"/><use href="#g4f" x="6"/><use href="#g4f" x="12"/><use href="#g47" x="18"/><use href="#g4c" x="24"/><use href="#g45" x="30"/><use href="#g4f" x="40"/><use href="#g41" x="46"/><use href="#g55" x="52"/><use href="#g54" x="58"/><use href="#g48" x="64"/></g></g><g class="rise" style="--d:0.85s"><rect x="296" y="426" width="66" height="26" fill="#EAF5FF" /><rect x="296" y="449" width="66" height="3" fill="#56A6FC" /><g transform="translate(306 432) scale(2)" fill="#123A5C"><use href="#g53" x="0"/><use href="#g4d" x="6"/><use href="#g54" x="12"/><use href="#g50" x="18"/></g></g><g class="rise" style="--d:0.88s"><rect x="368" y="426" width="90" height="26" fill="#EAF5FF" /><rect x="368" y="449" width="90" height="3" fill="#56A6FC" /><g transform="translate(378 432) scale(2)" fill="#123A5C"><use href="#g44" x="0"/><use href="#g4f" x="6"/><use href="#g4d" x="12"/><use href="#g50" x="18"/><use href="#g44" x="24"/><use href="#g46" x="30"/></g></g><rect x="16" y="472" width="3" height="10" fill="#56A6FC" /><g class="fade" style="--d:0.64s"><g transform="translate(26 470) scale(2)" fill="#4A7CA5"><use href="#g4d" x="0"/><use href="#g45" x="6"/><use href="#g54" x="12"/><use href="#g48" x="18"/><use href="#g4f" x="24"/><use href="#g44" x="30"/><use href="#g41" x="40"/><use href="#g4e" x="46"/><use href="#g44" x="52"/><use href="#g52" x="62"/><use href="#g49" x="68"/><use href="#g47" x="72"/><use href="#g4f" x="78"/><use href="#g52" x="84"/></g></g><g class="rise" style="--d:0.90s"><rect x="16" y="492" width="134" height="26" fill="#FFFFFF" /><rect x="16" y="492" width="134" height="2" fill="#C9E4FA" /><rect x="16" y="516" width="134" height="2" fill="#C9E4FA" /><rect x="16" y="492" width="2" height="26" fill="#C9E4FA" /><rect x="148" y="492" width="2" height="26" fill="#C9E4FA" /><g transform="translate(26 498) scale(2)" fill="#4A7CA5"><use href="#g43" x="0"/><use href="#g4e" x="6"/><use href="#g4e" x="12"/><use href="#g32" x="22"/><use href="#g44" x="28"/><use href="#g2f" x="38"/><use href="#g31" x="48"/><use href="#g44" x="52"/></g></g><g class="rise" style="--d:0.93s"><rect x="156" y="492" width="214" height="26" fill="#FFFFFF" /><rect x="156" y="492" width="214" height="2" fill="#C9E4FA" /><rect x="156" y="516" width="214" height="2" fill="#C9E4FA" /><rect x="156" y="492" width="2" height="26" fill="#C9E4FA" /><rect x="368" y="492" width="2" height="26" fill="#C9E4FA" /><g transform="translate(166 498) scale(2)" fill="#4A7CA5"><use href="#g54" x="0"/><use href="#g52" x="6"/><use href="#g41" x="12"/><use href="#g4e" x="18"/><use href="#g53" x="24"/><use href="#g46" x="30"/><use href="#g45" x="36"/><use href="#g52" x="42"/><use href="#g4c" x="52"/><use href="#g45" x="58"/><use href="#g41" x="64"/><use href="#g52" x="70"/><use href="#g4e" x="76"/><use href="#g49" x="82"/><use href="#g4e" x="86"/><use href="#g47" x="92"/></g></g><g class="rise" style="--d:0.95s"><rect x="376" y="492" width="110" height="26" fill="#FFFFFF" /><rect x="376" y="492" width="110" height="2" fill="#C9E4FA" /><rect x="376" y="516" width="110" height="2" fill="#C9E4FA" /><rect x="376" y="492" width="2" height="26" fill="#C9E4FA" /><rect x="484" y="492" width="2" height="26" fill="#C9E4FA" /><g transform="translate(386 498) scale(2)" fill="#4A7CA5"><use href="#g47" x="0"/><use href="#g52" x="6"/><use href="#g41" x="12"/><use href="#g44" x="18"/><use href="#g2d" x="24"/><use href="#g43" x="28"/><use href="#g41" x="34"/><use href="#g4d" x="40"/></g></g><g class="rise" style="--d:0.97s"><rect x="16" y="524" width="214" height="26" fill="#FFFFFF" /><rect x="16" y="524" width="214" height="2" fill="#C9E4FA" /><rect x="16" y="548" width="214" height="2" fill="#C9E4FA" /><rect x="16" y="524" width="2" height="26" fill="#C9E4FA" /><rect x="228" y="524" width="2" height="26" fill="#C9E4FA" /><g transform="translate(26 530) scale(2)" fill="#4A7CA5"><use href="#g4c" x="0"/><use href="#g45" x="6"/><use href="#g41" x="12"/><use href="#g4b" x="18"/><use href="#g41" x="24"/><use href="#g47" x="30"/><use href="#g45" x="36"/><use href="#g2d" x="42"/><use href="#g46" x="46"/><use href="#g52" x="52"/><use href="#g45" x="58"/><use href="#g45" x="64"/><use href="#g45" x="74"/><use href="#g56" x="80"/><use href="#g41" x="86"/><use href="#g4c" x="92"/></g></g><g class="rise" style="--d:1.00s"><rect x="236" y="524" width="242" height="26" fill="#FFFFFF" /><rect x="236" y="524" width="242" height="2" fill="#C9E4FA" /><rect x="236" y="548" width="242" height="2" fill="#C9E4FA" /><rect x="236" y="524" width="2" height="26" fill="#C9E4FA" /><rect x="476" y="524" width="2" height="26" fill="#C9E4FA" /><g transform="translate(246 530) scale(2)" fill="#4A7CA5"><use href="#g50" x="0"/><use href="#g41" x="6"/><use href="#g54" x="12"/><use href="#g49" x="18"/><use href="#g45" x="22"/><use href="#g4e" x="28"/><use href="#g54" x="34"/><use href="#g2d" x="40"/><use href="#g4c" x="44"/><use href="#g45" x="50"/><use href="#g56" x="56"/><use href="#g45" x="62"/><use href="#g4c" x="68"/><use href="#g53" x="78"/><use href="#g50" x="84"/><use href="#g4c" x="90"/><use href="#g49" x="96"/><use href="#g54" x="100"/><use href="#g53" x="106"/></g></g><g class="rise" style="--d:1.03s"><rect x="16" y="556" width="118" height="26" fill="#FFFFFF" /><rect x="16" y="556" width="118" height="2" fill="#C9E4FA" /><rect x="16" y="580" width="118" height="2" fill="#C9E4FA" /><rect x="16" y="556" width="2" height="26" fill="#C9E4FA" /><rect x="132" y="556" width="2" height="26" fill="#C9E4FA" /><g transform="translate(26 562) scale(2)" fill="#4A7CA5"><use href="#g52" x="0"/><use href="#g4f" x="6"/><use href="#g43" x="12"/><use href="#g2f" x="22"/><use href="#g41" x="32"/><use href="#g55" x="38"/><use href="#g43" x="44"/></g></g><g class="rise" style="--d:1.05s"><rect x="140" y="556" width="38" height="26" fill="#FFFFFF" /><rect x="140" y="556" width="38" height="2" fill="#C9E4FA" /><rect x="140" y="580" width="38" height="2" fill="#C9E4FA" /><rect x="140" y="556" width="2" height="26" fill="#C9E4FA" /><rect x="176" y="556" width="2" height="26" fill="#C9E4FA" /><g transform="translate(150 562) scale(2)" fill="#4A7CA5"><use href="#g46" x="0"/><use href="#g31" x="6"/></g></g></svg>